<?xml version="1.0" encoding="UTF-8"?>
<svg viewBox="0 0 936 1067" xmlns="http://www.w3.org/2000/svg">
 <g fill-rule="evenodd" stroke-width=".5">
  <path d="m0 533.5v-533.5h936v1067h-936v-533.5zm456.5-382.5q35.5-0.5 50 0.2 14.5 0.8 14.5 1.8t9.5 2 9.5 2.5 7.5 2.5 7.5 2 4 1.5 4 2 2.5 1.7q2.5 0.3 19 6.6 16.5 6.2 16.5 7.2t1.8 1.5q1.7 0.5 6.4 2.5 4.8 2 4.8 3t2.5 1.5 2.5 1.5 1.5 1.2q1.5 0.3 3.5 2.6 2 2.2 3.5 2.4 1.5 0.3 12 6.8t10.5 7.5 3 2.3q3 1.2 3 2.2t3 2 3.2 2q0.3 1 2.6 2 2.2 1 2.2 2t2 1.5 2.2 2q0.3 1.5 2 3.5 1.8 2 2.8 2.2 1 0.3 1.5 1.6 0.5 1.2 3.5 2.4 3 1.3 4.8 3.6 1.7 2.2 3.4 2.7 1.8 0.5 2.3 2.5t1.5 2 1.2 1.5q0.3 1.5 3 3.3 2.8 1.7 4 4 1.3 2.2 3.6 3.2 2.2 1 3.2 4.5t2.8 4.5q1.7 1 3 1.8 1.2 0.7 2 2.4 0.7 1.8 2.7 3.3t2.7 2.3q0.8 0.7 7.6 10.4 6.7 9.8 8 11 1.2 1.3 3.2 5 2 3.8 3 3.8t3.8 6q2.7 6 4.4 6.5 1.8 0.5 2.3 3.5t1.5 3 3 4.8q2 4.7 3 7.4 1 2.8 2 2.8t1.5 3 1.5 3 0.8 1q-0.3 1 1 1.5 1.2 0.5 3.2 6t3 5.5 0.8 1.5q-0.3 1.5 0.4 2 0.8 0.5 3.6 8 2.7 7.5 3.4 8 0.8 0.5 2.8 6.5t3 6 1 2.5 1 2.5 3 10.5 3.5 10.5 1.3 1q-0.3 1 0.4 1.5 0.8 0.5 3.3 13t4 12.5 2.3 5.5q0.7 5.5 2 15.5 1.2 10 2.7 10t4 24.5 3.5 24.5 1 55-1 55-3.5 24-4 24-2 10-1.5 10-1.5 5.5-2 5.5-4.5 14.5-4.5 14.5-3 8-2.5 8.2q-1 0.3-0.5 2.6 0.5 2.2-0.5 2.2t-1 2-1 2-3 6.5-3 6.7q-1 0.3-0.5 1.6 0.5 1.2-0.5 1.2t-3 6.5-3 6.7q-1 0.3-0.5 1.6 0.5 1.2-0.5 1.2t-1.8 2.5q-0.7 2.5-2 6-1.2 3.5-2.4 4-1.3 0.5-2 1-0.8 0.5-1.3 4t-1.5 3.5-1.5 1.2q-0.5 1.3-2.5 6.6-2 5.2-3 5.2t-2 3.5-2.5 3.7q-1.5 0.3-4.5 6.6-3 6.2-4 6.2t-1.2 1.5q-0.3 1.5-3.3 5.5t-7.3 8.8q-4.2 4.7-7.4 10-3.3 5.2-4 5.7-0.8 0.5-0.8 1.5t-3.5 3.2q-3.5 2.3-3 3.6 0.5 1.2-1.5 1.7t-3 4-2 3.7q-1 0.3-2.5 2-1.5 1.8-2.5 2-1 0.3-1.5 1.6-0.5 1.2-2 2-1.5 0.7-4 4.4-2.5 3.8-7 6.6-4.5 2.7-5.5 4.4-1 1.8-3.5 2.8t-2.7 2.5q-0.3 1.5-2 3.5-1.8 2-4.3 2.8-2.5 0.7-3 2-0.5 1.2-5 3.7t-4.5 4-1 1.7q-1 0.3-2.8 1.6-1.7 1.2-3 2-1.2 0.7-3.2 3-2 2.2-6.5 4-4.5 1.7-6.3 3.4-1.7 1.8-5.4 3.3-3.8 1.5-3.8 2.5t-2.5 1.5-2.5 2-4 2-4 1.5-1.5 1.2q-1.5 0.3-2 1.6-0.5 1.2-1.7 1.7-1.3 0.5-8 3-6.8 2.5-6.8 3.5t-2.5 1.8q-2.5 0.7-8 2-5.5 1.2-5.5 2.7t-6 2.5-6 2-4 1.5-4 1.5-3 1-3 1-4.5 1.5-4.5 1.5-9.5 2-9.5 2-5 1.2q-5 0.3-50 0.8t-53.8-0.8q-8.7-1.2-18.4-2.7-9.8-1.5-9.8-2.5t-5-1.5-5-1.5-2.5-1-2.5-1-4.5-1.5-4.5-1.5-6-2-6-2.5-5-2-5-1.5-3-1.5-3-1.5-6-3-6-3-1.5-1-1.5-1-2.5-1.5-2.5-1.5-4-1.5-4-2-2.5-2-2.5-1.5-3.5-2.2q-3.5-1.3-4.3-2.6-0.7-1.2-9.4-6.2-8.8-5-8.8-6t-2.5-2-2.5-2.5-3.5-2.5-3.7-2q-0.3-1-1.6-1.5-1.2-0.5-1.4-1.5-0.3-1-4-3.5-3.8-2.5-4.6-4-0.7-1.5-3.4-3-2.8-1.5-3.3-3.5t-2.5-2.2q-2-0.3-2.8-1.6-0.7-1.2-2.4-1.7-1.8-0.5-2-2-0.3-1.5-6-6.5-5.8-5-6-6-0.3-1-2-2-1.8-1-2-2.5-0.3-1.5-2.6-3.7-2.2-2.3-3-4-0.7-1.8-4-3.8-3.2-2-3.7-4.5t-1.5-2.5-1.2-1q-0.3-1-3.6-4.8-3.2-3.7-7.2-9.7t-6-9.7q-2-3.8-3.2-4.3-1.3-0.5-2-1-0.8-0.5-3-5.5-2.3-5-4-5.5-1.8-0.5-2.3-4t-1.5-3.5-1.2-2q-0.3-2-2-3.5-1.8-1.5-2.8-4.5t-2-3-2-4.5-2.5-4.5-3.5-7.5-3-7.5-2.2-3q-1.3-3-3-8-1.8-5-2.8-5t-4.2-10.5q-3.3-10.5-4-11-0.8-0.5-2.8-8.5t-3-8-1-2.5-1-2.5-3.5-12-3.5-12-1.5-5.5-1.5-5.5-2-10-2.5-10-1.3-3.5q0.3-3.5-0.4-4-0.8-0.5-3-20.5-2.3-20-2.8-68.5t2.8-79.5q3.2-31 4.7-31t2.5-6.2q1-6.3 2-12.6 1-6.2 2-6.4 1-0.3 0.5-3-0.5-2.8 0.5-2.8t3.5-12.5 3.5-12.5 1-1.5 1-1.5 2-7 2-7 1.5-3.5 1.5-3.5 2.5-7 2.7-8q1.3-1 2-1.5 0.8-0.5 1-2.5 0.3-2 3.3-7.5t3.7-6q0.8-0.5 2.8-8t3.5-7.5 2.5-4.5 2-4.5 1.2-2q0.3-2 1.6-2.8 1.2-0.7 2.7-4.4 1.5-3.8 2.5-3.8t1.5-4 2-4.2q1.5-0.3 4.5-6.6 3-6.2 4.5-6.2t1.7-1.5q0.3-1.5 6.3-9.5t6.7-8.8q0.8-0.7 3.3-5 2.5-4.2 3.5-4.2t1.2-1.5q0.3-1.5 1.6-2.3 1.2-0.7 2-2.4 0.7-1.8 2.4-2.3 1.8-0.5 3.3-2.3 1.5-1.7 3-5 1.5-3.2 2.5-3.4 1-0.3 2.2-2.6 1.3-2.2 3.6-3.4 2.2-1.3 3.7-4 1.5-2.8 3.7-4.3 2.3-1.5 3.6-2.3 1.2-0.7 2-2.4 0.7-1.8 4.4-3.8 3.8-2 4-3 0.3-1 1.6-1.5 1.2-0.5 1.2-1.5t2-1.8q2-0.7 2.8-2.4 0.7-1.8 2.4-2.3 1.8-0.5 3.8-3.5t8-6 6-4.5 6.2-5q6.3-3.5 12-6.5 5.8-3 6-4 0.3-1 3-2.2 2.8-1.3 3.3-2.6 0.5-1.2 3-1.7t2.5-1.5 5.5-2.5 5.5-2.5 1-1 1-1 8-3.5 8-3.5 2-1 2-1 9-3 9-3.5 4.5-2 4.5-1.5 7.5-2 7.5-2.5 9.8-3q9.7-1.5 18.4-2.3 8.8-0.7 44.3-1.2z" fill="#fff" stroke="#fff"/>
  <path d="m683.2 342.8l0.3 0.2 0.3 0.2 0.2 0.3 0.2 0.3 0.3 0.2 0.3 0.2 0.2 0.3 0.2 0.3 0.3 0.2 0.5 1 0.5 1h0.5l3.5 4.2q3.5 4.3 9 13.3t6.5 9.3q1 0.2 4.2 8.7 3.3 8.5 7.8 16.5t11.8 24.8q7.2 16.7 8.4 22 1.3 5.2 5.3 21.7t7 27.5 4.5 22 2.5 16.5 0.5 55-2 55-3.5 17.5-2.3 13.5l-0.2 1.5-1.8 7.5q-1.7 7.5-1.4 8.5 0.2 1-0.8 1t-3.8 12.5q-2.7 12.5-7.2 24t-7 17.5-11 23-9.2 20q-0.8 3-2.8 3.5t-4.8 6q-2.7 5.5-9.2 14.5t-6.8 10.5q-0.2 1.5-2.2 2t-6 7.5-7.8 9.5q-3.7 2.5-16.7 16.5t-18.3 18.2q-5.2 4.3-7 5-1.7 0.8-2 1.8-0.2 1-4.4 3.5-4.3 2.5-5 3.7-0.8 1.3-7.6 5.6-6.7 4.2-13.4 8.4-6.8 4.3-12.3 6.8t-18.5 8.5-30.5 11.5-20.5 6l-3 0.5-1.5 0.5-1.5 0.5-1 0.3-1 0.2-43.5-0.2q-43.5-0.3-57.5-3.8t-22-6.5-30.8-13.7q-22.7-10.8-28-14.3-5.2-3.5-5.4-4.5-0.3-1-6-4.2-5.8-3.3-10.6-7.6-4.7-4.2-7.4-5.7-2.8-1.5-3-2.5-0.3-1-17-17.2-16.8-16.3-23-24-6.3-7.8-9-9.3-2.8-1.5-3.3-5.5t-1.5-4.2q-1-0.3-2-3-1-2.8-2-2.8t-1.5-1.2q-0.5-1.3-9.3-15.6-8.7-14.2-11-17-2.2-2.7-7.2-13.4l-5-10.8-0.2-2q-0.3-2-4.8-11.5t-8.2-21.7q-3.8-12.3-5.8-19.3t-5.2-21.3q-3.3-14.2-4.6-24.2-1.2-10-2.2-10t-0.8-60q0.3-60 4.8-84.5t5-25.5 3.5-10 4.5-14.5 4-12 10.8-26q8.2-19.5 9.2-19.5t1.2-1.5q0.3-1.5 1.6-2 1.2-0.5 3-4.5 1.7-4 5-11 3.2-7 4.2-7t1-1v-1l0.2-0.5 0.3-0.5 0.3-0.2 0.2-0.3 0.2-0.3 0.3-0.2 0.3-0.2 0.2-0.3 4-6q4-6 5-6.3 1-0.2 2.5-4 1.5-3.7 2.5-4 1-0.2 1-1.7t3.2-4q3.3-2.5 4-4.3 0.8-1.7 13.8-15.2t14-13.8q1-0.2 1-1.2t2.2-2.5q2.3-1.5 2.6-2.5 0.2-1 2.7-2t3.5-3.5 8.5-7.3q7.5-4.7 11-8.4 3.5-3.8 6.5-4.3t3-1.5 5.5-4.8q5.5-3.7 9.7-5.4 4.3-1.8 18-9 13.8-7.3 22.3-10.3t26-8 64.5-4.5 69.5 7 33.3 12.2q10.7 5.8 18 8.8 7.2 3 7.2 4t4.8 3.5q4.7 2.5 16.2 11t16.8 12.3q5.2 3.7 6.7 4 1.5 0.2 2.5 2 1 1.7 3.8 3.4 2.7 1.8 4 4.3 1.2 2.5 5 6 3.7 3.5 7 7.3 3.2 3.7 4.4 4.4 1.3 0.8 1 1.8-0.2 1 4 4 4.3 3 4.6 4.5 0.2 1.5 1.7 1.5t2.5 2.8q1 2.7 3 4.4 2 1.8 3 4 1 2.3 1.2 2.6zm-47.2 296.7l0.5-1.5 0.5-1 0.5-1 0.3 0.2 0.2 0.3 0.2 0.3 0.3 0.2 0.3 0.2 0.2 0.3 0.2 0.3 0.3 0.2 0.5 1 0.5 1 0.5 1 0.5 1 0.5 2.5q0.5 2.5 0.5 7.5t-1 8-5 7.5-14.7 10.7q-10.8 6.3-19.8 9.3t-23.5 3-24-5.7q-9.5-5.8-11.7-8.8-2.3-3-6.3-12.5t-4-26 3.5-25.5 11-16.5 20.8-17.7q13.2-10.3 24.4-20.6 11.3-10.2 16.8-18.7t9-18 4-22-1-18.5-9.2-20.5q-7.8-14.5-9.6-15.5-1.7-1-10-5.8-8.2-4.7-17.2-6l-9-1.2 0.2 1 0.3 1 0.5 1.5 0.5 1.5 3.5 8.5q3.5 8.5 7.5 23.5t4 32-5 32-14.3 27.2q-9.2 12.3-15.2 16.8t-11.5 9-15.5 12-11.5 7.8q-1.5 0.2-5.7 7.2-4.3 7-5.8 17t-1 25.5 6.5 37.5 17 42.5 19.7 31.3q8.8 10.7 9.8 11.2l1 0.5 0.2 0.3 0.3 0.2 0.3 0.2 0.2 0.3 0.2 0.3 0.3 0.2 0.3 0.2 0.2 0.3 0.2 0.3 0.3 0.2 0.3 0.2 0.2 0.3 0.2 0.3 0.3 0.2v2l-0.3 0.2-0.2 0.3h-2l-1-0.5-1-0.5-1.5-0.5-1.5-0.5-4.5-2q-4.5-2-20.5-2t-24.5 2.5-16.7 9.2q-8.3 6.8-17.8 18.8t-16 20-10.8 13.8q-4.2 5.7-9 11-4.7 5.2-15 15.4-10.2 10.3-17 15.6-6.7 5.2-7 6.2-0.2 1-4.2 0.8l-4-0.3-1-0.5-1-0.5-1-0.5-1-0.5-0.2-0.3-0.3-0.2-0.3-0.2-0.2-0.3-0.2-0.3-0.3-0.2-0.5-1.5-0.5-1.5v-2.5q0-2.5 6.5-15.5t14.5-25 17.5-26.5 9.5-24-4.5-17.5-5-13.5 1.2-9q1.8-3.5 3.8-4.3 2-0.7 6.5-1 4.5-0.2 4.7-15.2 0.3-15-3.2-29t-12.8-30.5q-9.2-16.5-48.7-9.7-39.5 6.7-43.3 4-3.7-2.8-4.2-12.8t-1.5-12-3.3-4q-2.2-2-2.4-3-0.3-1-3.3-3t-3-5 0.3-6.5q0.2-3.5-3-6-3.3-2.5-3.8-5.5t2-5.5 3-8-0.5-7.5-5.7-4.2q-4.8-2.3-6-4l-1.3-1.8v-5l0.5-1q0.5-1 1.8-1.8 1.2-0.7 6-5 4.7-4.2 8.4-11.7l3.8-7.5-2-0.2q-2-0.3-4-1.3l-2-1-1-0.5-1-0.5-0.2-0.3-0.3-0.2-0.3-0.2-0.2-0.3h3l0.2 0.3 0.3 0.2 0.3 0.2 0.2 0.3 1.5 0.5q1.5 0.5 4 0.5h2.5l0.2-0.3 0.3-0.2 0.3-0.2 0.2-0.3 0.2-0.3 0.3-0.2 0.3-0.2 0.2-0.3 0.2-0.3 0.3-0.2-0.5-5q-0.5-5-2.2-7.8-1.8-2.7-3-3.4-1.3-0.8-2.8-15.3t-10.8-19.3q-9.2-4.7-10.4-6-1.3-1.2-0.8-6.7t6.2-18.3q5.8-12.7 13.8-20.7t14.5-10.5 16.5-3.5 17-7.5 24-17 35.5-18 43-9 38.5 1.5 16 4 3 1.5l1 0.5 2 0.3 2 0.2 0.2-1 0.3-1 0.5-1 0.5-1v-2q0-2-1.5-6.5l-1.5-4.5 0.3-0.2 0.2-0.3 4-1.5q4-1.5 9.5-2t9-0.2q3.5 0.2 3.7 3.2 0.3 3 0.8 8.5l0.5 5.5 0.3 0.2 0.2 0.3 0.2 0.3 0.3 0.2 0.3-0.2 0.2-0.3 0.2-0.3 0.3-0.2 0.3-0.2 0.2-0.3 0.2-0.3 0.3-0.2 0.3-0.2 0.2-0.3 1-0.5 1-0.5 8.5-5.5q8.5-5.5 19-8t26-2 27.5 5 21.5 10.2q9.5 5.8 13.5 11 4 5.3 8.8 10 4.7 4.8 12.2 14.3t16 27 11.5 30 2.5 27-3 23.5-7.8 18.2q-5.2 9.3-10.7 16.3t-10.3 10.7q-4.7 3.8-6.4 6.6-1.8 2.7-27.3 21.7t-32.7 24.7q-7.3 5.8-10.3 10.8t-2.5 12 3.2 10.2q2.8 3.3 5.8 4.3t8.5 0.5 9.7-3.8q4.3-3.2 5.3-4.7t1.5-3z" fill="#f298c0" stroke="#f298c0"/>
  <path d="m636 639.5l0.5-1.5 0.5-1 0.5-1 0.3 0.2 0.2 0.3 0.2 0.3 0.3 0.2 0.3 0.2 0.2 0.3 0.2 0.3 0.3 0.2 0.5 1 0.5 1 0.5 1 0.5 1 0.5 2.5q0.5 2.5 0.5 7.5t-1 8-5 7.5-14.7 10.7q-10.8 6.3-19.8 9.3t-23.5 3-24-5.7q-9.5-5.8-11.7-8.8-2.3-3-6.3-12.5t-4-26 3.5-25.5 11-16.5 20.8-17.7q13.2-10.3 24.4-20.6 11.3-10.2 16.8-18.7t9-18 4-22-1-18.5-9.2-20.5q-7.8-14.5-9.6-15.5-1.7-1-10-5.8-8.2-4.7-17.2-6l-9-1.2 0.2 1 0.3 1 0.5 1.5 0.5 1.5 3.5 8.5q3.5 8.5 7.5 23.5t4 32-5 32-14.3 27.2q-9.2 12.3-15.2 16.8t-11.5 9-15.5 12-11.5 7.8q-1.5 0.2-5.7 7.2-4.3 7-5.8 17t-1 25.5 6.5 37.5 17 42.5 19.7 31.3q8.8 10.7 9.8 11.2l1 0.5 0.2 0.3 0.3 0.2 0.3 0.2 0.2 0.3 0.2 0.3 0.3 0.2 0.3 0.2 0.2 0.3 0.2 0.3 0.3 0.2 0.3 0.2 0.2 0.3 0.2 0.3 0.3 0.2v2l-0.3 0.2-0.2 0.3h-2l-1-0.5-1-0.5-1.5-0.5-1.5-0.5-4.5-2q-4.5-2-20.5-2t-24.5 2.5-16.7 9.2q-8.3 6.8-17.8 18.8t-16 20-10.8 13.8q-4.2 5.7-9 11-4.7 5.2-15 15.4-10.2 10.3-17 15.6-6.7 5.2-7 6.2-0.2 1-4.2 0.8l-4-0.3-1-0.5-1-0.5-1-0.5-1-0.5-0.2-0.3-0.3-0.2-0.3-0.2-0.2-0.3-0.2-0.3-0.3-0.2-0.5-1.5-0.5-1.5v-2.5q0-2.5 6.5-15.5t14.5-25 17.5-26.5 9.5-24-4.5-17.5-5-13.5 1.2-9q1.8-3.5 3.8-4.3 2-0.7 6.5-1 4.5-0.2 4.7-15.2 0.3-15-3.2-29t-12.8-30.5q-9.2-16.5-48.7-9.7-39.5 6.7-43.3 4-3.7-2.8-4.2-12.8t-1.5-12-3.3-4q-2.2-2-2.4-3-0.3-1-3.3-3t-3-5 0.3-6.5q0.2-3.5-3-6-3.3-2.5-3.8-5.5t2-5.5 3-8-0.5-7.5-5.7-4.2q-4.8-2.3-6-4l-1.3-1.8v-5l0.5-1q0.5-1 1.8-1.8 1.2-0.7 6-5 4.7-4.2 8.4-11.7l3.8-7.5-2-0.2q-2-0.3-4-1.3l-2-1-1-0.5-1-0.5-0.2-0.3-0.3-0.2-0.3-0.2-0.2-0.3h3l0.2 0.3 0.3 0.2 0.3 0.2 0.2 0.3 1.5 0.5q1.5 0.5 4 0.5h2.5l0.2-0.3 0.3-0.2 0.3-0.2 0.2-0.3 0.2-0.3 0.3-0.2 0.3-0.2 0.2-0.3 0.2-0.3 0.3-0.2-0.5-5q-0.5-5-2.2-7.8-1.8-2.7-3-3.4-1.3-0.8-2.8-15.3t-10.8-19.3q-9.2-4.7-10.4-6-1.3-1.2-0.8-6.7t6.2-18.3q5.8-12.7 13.8-20.7t14.5-10.5 16.5-3.5 17-7.5 24-17 35.5-18 43-9 38.5 1.5 16 4 3 1.5l1 0.5 2 0.3 2 0.2 0.2-1 0.3-1 0.5-1 0.5-1v-2q0-2-1.5-6.5l-1.5-4.5 0.3-0.2 0.2-0.3 4-1.5q4-1.5 9.5-2t9-0.2q3.5 0.2 3.7 3.2 0.3 3 0.8 8.5l0.5 5.5 0.3 0.2 0.2 0.3 0.2 0.3 0.3 0.2 0.3-0.2 0.2-0.3 0.2-0.3 0.3-0.2 0.3-0.2 0.2-0.3 0.2-0.3 0.3-0.2 0.3-0.2 0.2-0.3 1-0.5 1-0.5 8.5-5.5q8.5-5.5 19-8t26-2 27.5 5 21.5 10.2q9.5 5.8 13.5 11 4 5.3 8.8 10 4.7 4.8 12.2 14.3t16 27 11.5 30 2.5 27-3 23.5-7.8 18.2q-5.2 9.3-10.7 16.3t-10.3 10.7q-4.7 3.8-6.4 6.6-1.8 2.7-27.3 21.7t-32.7 24.7q-7.3 5.8-10.3 10.8t-2.5 12 3.2 10.2q2.8 3.3 5.8 4.3t8.5 0.5 9.7-3.8q4.3-3.2 5.3-4.7t1.5-3z" fill="#040504" stroke="#040504"/>
  <path d="m456.5 151q35.5-0.5 50 0.2 14.5 0.8 14.5 1.8t9.5 2 9.5 2.5 7.5 2.5 7.5 2 4 1.5 4 2 2.5 1.7q2.5 0.3 19 6.6 16.5 6.2 16.5 7.2t1.8 1.5q1.7 0.5 6.4 2.5 4.8 2 4.8 3t2.5 1.5 2.5 1.5 1.5 1.2q1.5 0.3 3.5 2.6 2 2.2 3.5 2.4 1.5 0.3 12 6.8t10.5 7.5 3 2.3q3 1.2 3 2.2t3 2 3.2 2q0.3 1 2.6 2 2.2 1 2.2 2t2 1.5 2.2 2q0.3 1.5 2 3.5 1.8 2 2.8 2.2 1 0.3 1.5 1.6 0.5 1.2 3.5 2.4 3 1.3 4.8 3.6 1.7 2.2 3.4 2.7 1.8 0.5 2.3 2.5t1.5 2 1.2 1.5q0.3 1.5 3 3.3 2.8 1.7 4 4 1.3 2.2 3.6 3.2 2.2 1 3.2 4.5t2.8 4.5q1.7 1 3 1.8 1.2 0.7 2 2.4 0.7 1.8 2.7 3.3t2.7 2.3q0.8 0.7 7.6 10.4 6.7 9.8 8 11 1.2 1.3 3.2 5 2 3.8 3 3.8t3.8 6q2.7 6 4.4 6.5 1.8 0.5 2.3 3.5t1.5 3 3 4.8q2 4.7 3 7.4 1 2.8 2 2.8t1.5 3 1.5 3 0.8 1q-0.3 1 1 1.5 1.2 0.5 3.2 6t3 5.5 0.8 1.5q-0.3 1.5 0.4 2 0.8 0.5 3.6 8 2.7 7.5 3.4 8 0.8 0.5 2.8 6.5t3 6 1 2.5 1 2.5 3 10.5 3.5 10.5 1.3 1q-0.3 1 0.4 1.5 0.8 0.5 3.3 13t4 12.5 2.3 5.5q0.7 5.5 2 15.5 1.2 10 2.7 10t4 24.5 3.5 24.5 1 55-1 55-3.5 24-4 24-2 10-1.5 10-1.5 5.5-2 5.5-4.5 14.5-4.5 14.5-3 8-2.5 8.2q-1 0.3-0.5 2.6 0.5 2.2-0.5 2.2t-1 2-1 2-3 6.5-3 6.7q-1 0.3-0.5 1.6 0.5 1.2-0.5 1.2t-3 6.5-3 6.7q-1 0.3-0.5 1.6 0.5 1.2-0.5 1.2t-1.8 2.5q-0.7 2.5-2 6-1.2 3.5-2.4 4-1.3 0.5-2 1-0.8 0.5-1.3 4t-1.5 3.5-1.5 1.2q-0.5 1.3-2.5 6.6-2 5.2-3 5.2t-2 3.5-2.5 3.7q-1.5 0.3-4.5 6.6-3 6.2-4 6.2t-1.2 1.5q-0.3 1.5-3.3 5.5t-7.3 8.8q-4.2 4.7-7.4 10-3.3 5.2-4 5.7-0.8 0.5-0.8 1.5t-3.5 3.2q-3.5 2.3-3 3.6 0.5 1.2-1.5 1.7t-3 4-2 3.7q-1 0.3-2.5 2-1.5 1.8-2.5 2-1 0.3-1.5 1.6-0.5 1.2-2 2-1.5 0.7-4 4.4-2.5 3.8-7 6.6-4.5 2.7-5.5 4.4-1 1.8-3.5 2.8t-2.7 2.5q-0.3 1.5-2 3.5-1.8 2-4.3 2.8-2.5 0.7-3 2-0.5 1.2-5 3.7t-4.5 4-1 1.7q-1 0.3-2.8 1.6-1.7 1.2-3 2-1.2 0.7-3.2 3-2 2.2-6.5 4-4.5 1.7-6.3 3.4-1.7 1.8-5.4 3.3-3.8 1.5-3.8 2.5t-2.5 1.5-2.5 2-4 2-4 1.5-1.5 1.2q-1.5 0.3-2 1.6-0.5 1.2-1.7 1.7-1.3 0.5-8 3-6.8 2.5-6.8 3.5t-2.5 1.8q-2.5 0.7-8 2-5.5 1.2-5.5 2.7t-6 2.5-6 2-4 1.5-4 1.5-3 1-3 1-4.5 1.5-4.5 1.5-9.5 2-9.5 2-5 1.2q-5 0.3-50 0.8t-53.8-0.8q-8.7-1.2-18.4-2.7-9.8-1.5-9.8-2.5t-5-1.5-5-1.5-2.5-1-2.5-1-4.5-1.5-4.5-1.5-6-2-6-2.5-5-2-5-1.5-3-1.5-3-1.5-6-3-6-3-1.5-1-1.5-1-2.5-1.5-2.5-1.5-4-1.5-4-2-2.5-2-2.5-1.5-3.5-2.2q-3.5-1.3-4.3-2.6-0.7-1.2-9.4-6.2-8.8-5-8.8-6t-2.5-2-2.5-2.5-3.5-2.5-3.7-2q-0.3-1-1.6-1.5-1.2-0.5-1.4-1.5-0.3-1-4-3.5-3.8-2.5-4.6-4-0.7-1.5-3.4-3-2.8-1.5-3.3-3.5t-2.5-2.2q-2-0.3-2.8-1.6-0.7-1.2-2.4-1.7-1.8-0.5-2-2-0.3-1.5-6-6.5-5.8-5-6-6-0.3-1-2-2-1.8-1-2-2.5-0.3-1.5-2.6-3.7-2.2-2.3-3-4-0.7-1.8-4-3.8-3.2-2-3.7-4.5t-1.5-2.5-1.2-1q-0.3-1-3.6-4.8-3.2-3.7-7.2-9.7t-6-9.7q-2-3.8-3.2-4.3-1.3-0.5-2-1-0.8-0.5-3-5.5-2.3-5-4-5.5-1.8-0.5-2.3-4t-1.5-3.5-1.2-2q-0.3-2-2-3.5-1.8-1.5-2.8-4.5t-2-3-2-4.5-2.5-4.5-3.5-7.5-3-7.5-2.2-3q-1.3-3-3-8-1.8-5-2.8-5t-4.2-10.5q-3.3-10.5-4-11-0.8-0.5-2.8-8.5t-3-8-1-2.5-1-2.5-3.5-12-3.5-12-1.5-5.5-1.5-5.5-2-10-2.5-10-1.3-3.5q0.3-3.5-0.4-4-0.8-0.5-3-20.5-2.3-20-2.8-68.5t2.8-79.5q3.2-31 4.7-31t2.5-6.2q1-6.3 2-12.6 1-6.2 2-6.4 1-0.3 0.5-3-0.5-2.8 0.5-2.8t3.5-12.5 3.5-12.5 1-1.5 1-1.5 2-7 2-7 1.5-3.5 1.5-3.5 2.5-7 2.7-8q1.3-1 2-1.5 0.8-0.5 1-2.5 0.3-2 3.3-7.5t3.7-6q0.8-0.5 2.8-8t3.5-7.5 2.5-4.5 2-4.5 1.2-2q0.3-2 1.6-2.8 1.2-0.7 2.7-4.4 1.5-3.8 2.5-3.8t1.5-4 2-4.2q1.5-0.3 4.5-6.6 3-6.2 4.5-6.2t1.7-1.5q0.3-1.5 6.3-9.5t6.7-8.8q0.8-0.7 3.3-5 2.5-4.2 3.5-4.2t1.2-1.5q0.3-1.5 1.6-2.3 1.2-0.7 2-2.4 0.7-1.8 2.4-2.3 1.8-0.5 3.3-2.3 1.5-1.7 3-5 1.5-3.2 2.5-3.4 1-0.3 2.2-2.6 1.3-2.2 3.6-3.4 2.2-1.3 3.7-4 1.5-2.8 3.7-4.3 2.3-1.5 3.6-2.3 1.2-0.7 2-2.4 0.7-1.8 4.4-3.8 3.8-2 4-3 0.3-1 1.6-1.5 1.2-0.5 1.2-1.5t2-1.8q2-0.7 2.8-2.4 0.7-1.8 2.4-2.3 1.8-0.5 3.8-3.5t8-6 6-4.5 6.2-5q6.3-3.5 12-6.5 5.8-3 6-4 0.3-1 3-2.2 2.8-1.3 3.3-2.6 0.5-1.2 3-1.7t2.5-1.5 5.5-2.5 5.5-2.5 1-1 1-1 8-3.5 8-3.5 2-1 2-1 9-3 9-3.5 4.5-2 4.5-1.5 7.5-2 7.5-2.5 9.8-3q9.7-1.5 18.4-2.3 8.8-0.7 44.3-1.2zm-0.5 42q30-0.5 39.5 0.5t22.5 4.5 21 5.5 30 10.7q22 8.8 22 9.8t1 1.2q1 0.3 16.5 9.8t24.5 15.8q9 6.2 9.2 7.2 0.3 1 6.6 6.2 6.2 5.3 8.4 7.6 2.3 2.2 6 5.2 3.8 3 5.8 5.8 2 2.7 6.8 8 4.7 5.2 9 8.7 4.2 3.5 6.4 7.5 2.3 4 6.6 8.8 4.2 4.7 9.2 13 5 8.2 6 8.4 1 0.3 6.5 8.8t6.7 11.8q1.3 3.2 4.6 8.4 3.2 5.3 14.2 29.3t18.2 46.7q7.3 22.8 11.3 40.8t7 41.5 3.7 58.5q0.8 35-0.2 35t-1.2 5.5q-0.3 5.5-3.8 30.5t-12 55-13.5 42-16.5 35.5-21 38-17 24.5-14 17-21.8 21.8q-15.2 14.7-18.7 18.4-3.5 3.8-6.5 5-3 1.3-9.8 7-6.7 5.8-12 8.6-5.2 2.7-15.4 9.4-10.3 6.8-20.6 10.8-10.2 4-10.2 5t-5 2.8q-5 1.7-21 6.7t-32.5 8.5-47 4-38.5-0.5-30-6.5-40-13-29-13.5-22.5-13.5-15-11.2q-3.5-3.8-5-4-1.5-0.3-5.5-3.3t-7-6.7q-3-3.8-4-4-1-0.3-11-9.8t-16.5-17-20-25-17.7-24.8q-4.3-7.2-6-8.7-1.8-1.5-6.3-10.3-4.5-8.7-5.7-12-1.3-3.2-7-15-5.8-11.7-8.8-19.7t-8.5-23.5-11.7-41.2q-6.3-25.8-8.8-43.8t-3-58 1-54.5 7-42 11.8-46.7q6.2-19.3 8.4-26 2.3-6.8 8.8-20.3t8.5-19 12.5-23 12.2-19q1.8-1.5 6.6-9.5 4.7-8 6-8.8 1.2-0.7 7.2-9 6-8.2 7-8.2t1.2-1q0.3-1 13.3-14.5t16.7-16q3.8-2.5 4-3.5 0.3-1 14.8-12.5t32.5-22.5 35.7-18.8q17.8-7.7 45.3-14.2t57.5-7z" stroke="#000"/>
  <path d="m456 193q30-0.5 39.5 0.5t22.5 4.5 21 5.5 30 10.7q22 8.8 22 9.8t1 1.2q1 0.3 16.5 9.8t24.5 15.8q9 6.2 9.2 7.2 0.3 1 6.6 6.2 6.2 5.3 8.4 7.6 2.3 2.2 6 5.2 3.8 3 5.8 5.8 2 2.7 6.8 8 4.7 5.2 9 8.7 4.2 3.5 6.4 7.5 2.3 4 6.6 8.8 4.2 4.7 9.2 13 5 8.2 6 8.4 1 0.3 6.5 8.8t6.7 11.8q1.3 3.2 4.6 8.4 3.2 5.3 14.2 29.3t18.2 46.7q7.3 22.8 11.3 40.8t7 41.5 3.7 58.5q0.8 35-0.2 35t-1.2 5.5q-0.3 5.5-3.8 30.5t-12 55-13.5 42-16.5 35.5-21 38-17 24.5-14 17-21.8 21.8q-15.2 14.7-18.7 18.4-3.5 3.8-6.5 5-3 1.3-9.8 7-6.7 5.8-12 8.6-5.2 2.7-15.4 9.4-10.3 6.8-20.6 10.8-10.2 4-10.2 5t-5 2.8q-5 1.7-21 6.7t-32.5 8.5-47 4-38.5-0.5-30-6.5-40-13-29-13.5-22.5-13.5-15-11.2q-3.5-3.8-5-4-1.5-0.3-5.5-3.3t-7-6.7q-3-3.8-4-4-1-0.3-11-9.8t-16.5-17-20-25-17.7-24.8q-4.3-7.2-6-8.7-1.8-1.5-6.3-10.3-4.5-8.7-5.7-12-1.3-3.2-7-15-5.8-11.7-8.8-19.7t-8.5-23.5-11.7-41.2q-6.3-25.8-8.8-43.8t-3-58 1-54.5 7-42 11.8-46.7q6.2-19.3 8.4-26 2.3-6.8 8.8-20.3t8.5-19 12.5-23 12.2-19q1.8-1.5 6.6-9.5 4.7-8 6-8.8 1.2-0.7 7.2-9 6-8.2 7-8.2t1.2-1q0.3-1 13.3-14.5t16.7-16q3.8-2.5 4-3.5 0.3-1 14.8-12.5t32.5-22.5 35.7-18.8q17.8-7.7 45.3-14.2t57.5-7zm239 143h1l0.2 1 0.3 1 0.3 0.2 0.2 0.3 0.2 0.3 0.3 0.2 0.3 0.2 0.2 0.3 0.2 0.3 0.3 0.2 0.3 0.2 0.2 0.3 0.2 0.3 0.3 0.2 0.3 0.5 0.2 0.5 1.5 2.2q1.5 2.3 2.5 2.6 1 0.2 6.2 9.7 5.3 9.5 8.6 16 3.2 6.5 4.2 6.5t4 6.8q3 6.7 9.2 20.4 6.3 13.8 12.8 32.8t11.5 43.5 7.7 40.3q2.8 15.7 3.8 16 1 0.2 1 45.2t-1.5 45-2.3 6.5q-0.7 6.5-3.7 23.5t-3.3 18.5l-0.2 1.5-4 16.8q-4 16.7-8.5 31.4-4.5 14.8-5.5 14.8t-3.2 7.5q-2.3 7.5-4.6 13-2.2 5.5-3.2 5.5t-7 12.8q-6 12.7-14 25.7t-16.2 24.3q-8.3 11.2-8.6 12.7-0.2 1.5-1.7 1.5t-5 5.2q-3.5 5.3-17.5 19.8t-17.8 17.8q-3.7 3.2-4 4.2-0.2 1-8.4 6.5-8.3 5.5-23.6 15.7-15.2 10.3-27.2 16.3t-25.5 11-23.5 8-12.5 3.3l-2.5 0.2h-0.5l-0.3 0.2-0.2 0.3-2.5 0.5q-2.5 0.5-6.5 1.2-4 0.8-4 1.8t-42 0.8q-42-0.3-65-6.3t-44.5-15.5-23-11.2q-1.5-1.8-3.5-2-2-0.3-3.5-2-1.5-1.8-6-4.6-4.5-2.7-14.5-9.7t-22.5-18-22-20.5-16.3-18.2q-6.7-8.8-9.4-11.3-2.8-2.5-4-5.5-1.3-3-3.3-4.5t-3.3-5q-1.2-3.5-2.2-3.5t-3.8-5q-2.7-5-10-17.8-7.2-12.7-8.7-16.4-1.5-3.8-2.5-3.8t-3.8-6.5l-2.7-6.5-0.3-1-0.2-1h-0.2q-0.3 0-0.6-1.5l-0.2-1.5-0.5-0.2q-0.5-0.3-0.5-0.6v-0.2l-0.5-0.2q-0.5-0.3-0.5-0.6v-0.2l-0.2-2q-0.3-2-2.6-7.2-2.2-5.3-6-14.6-3.7-9.2-5.2-15.2t-4.5-15-7.5-32-5-84.5 3-81 8-36 6.5-22.5 4.7-13.8q2.8-7.7 6.6-16.4 3.7-8.8 13-27 9.2-18.3 12.7-25 3.5-6.8 4.5-6.8t2-1.5l1-1.5 0.2-0.5q0.3-0.5 0.6-0.5h0.2l4-7.8q4-7.7 5-8 1-0.2 3-3.4 2-3.3 3-3.6 1-0.2 1-1.7t1.2-2q1.3-0.5 4-4.3 2.8-3.7 8.6-10 5.7-6.2 6-7.7 0.2-1.5 1.2-1.5t2.5-2.2q1.5-2.3 2.5-2.6 1-0.2 4.5-4 3.5-3.7 4-5 0.5-1.2 2.7-2.7 2.3-1.5 2.6-2.5 0.2-1 5-4.5 4.7-3.5 8-6.7 3.2-3.3 11-8.6 7.7-5.2 8-6.2 0.2-1 8.4-6 8.3-5 27.6-15.2 19.2-10.3 28.2-13.8t27.5-8 66-4.5 69.5 6 33.2 11.3q11.3 5.2 21.8 10.7t15.5 8.5 5.3 4q0.2 1 4.7 3.2 4.5 2.3 14 9.3t10.5 7.3q1 0.2 1 1.2t9.8 8.5q9.7 7.5 14.4 13.7 4.8 6.3 7.6 8 2.7 1.8 5.4 6 2.8 4.3 4 5 1.3 0.8 2 2.6 0.8 1.7 1.8 2 1 0.2 4.8 5.2 3.7 5 5.4 8.5 1.8 3.5 2.8 3.5z" fill="#f298c0" stroke="#f298c0"/>
  <path d="m215 354h1l-0.2 1q-0.3 1-0.3 3v2l0.3 0.2 0.2 0.3 1 0.5 1 0.5 0.2 0.3 0.3 0.2 0.5 1 0.5 1 0.3 0.2 0.2 0.3h1l1.5-0.3 1.5-0.2v1q0 1-1 1t-4.2 7q-3.3 7-5 11-1.8 4-3 4.5-1.3 0.5-1.6 2-0.2 1.5-1.2 1.5t-9.2 19.5q-8.3 19.5-10.8 26t-4 12-4.5 14.5-3.5 10-5 25.5-4.8 84.5q-0.2 60 0.8 60t2.2 10q1.3 10 4.6 24.2 3.2 14.3 5.2 21.3t5.8 19.3q3.7 12.2 8.2 21.7t4.8 11.5l0.2 2-0.8 1q-0.7 1-1 4l-0.2 3h-4v2h-2v-2h-3l-0.2-1.5q-0.3-1.5-0.6-1.5h-0.2l-0.2-0.5q-0.3-0.5-0.6-0.5h-0.2l-0.2-0.5q-0.3-0.5-0.6-0.5h-0.2l-0.2-2q-0.3-2-2.6-7.2-2.2-5.3-6-14.6-3.7-9.2-5.2-15.2t-4.5-15-7.5-32-5-84.5 3-81 8-36 6.5-22.5 4.7-13.8q2.8-7.7 6.6-16.4 3.7-8.8 13-27 9.2-18.3 12.7-25 3.5-6.8 4.5-6.8t1.5-2 1.5-2z" fill="#040204" stroke="#040204"/>
  <path d="m695 336h1l0.2 1 0.3 1 0.3 0.2 0.2 0.3 0.2 0.3 0.3 0.2 0.3 0.2 0.2 0.3 0.2 0.3 0.3 0.2 0.3 0.2 0.2 0.3 0.2 0.3 0.3 0.2 0.3 0.5 0.2 0.5-1-0.2-1-0.3-0.2-0.3-0.3-0.2-0.3 0.2-0.2 0.3-1.5 0.3q-1.5 0.2-1.5-1.3t-3-1.3l-3 0.3-0.2 0.3q-0.3 0.2-0.6 3.7l-0.2 3.5h-0.5l-0.5-1-0.5-1-0.3-0.2-0.2-0.3-0.2-0.3-0.3-0.2-0.3-0.2-0.2-0.3-0.2-0.3-0.3-0.2-0.3-0.2q-0.2-0.3-1.2-2.6-1-2.2-3-4-2-1.7-3-4.4-1-2.8-2.5-2.8t-1.7-1.5q-0.3-1.5-4.6-4.5-4.2-3-4-4 0.3-1-1-1.8-1.2-0.7-4.4-4.4-3.3-3.8-7-7.3-3.8-3.5-5-6-1.3-2.5-4-4.3-2.8-1.7-3.8-3.4-1-1.8-2.5-2-1.5-0.3-6.7-4-5.3-3.8-16.8-12.3t-16.2-11q-4.8-2.5-4.8-3.5t-7.2-4q-7.3-3-18-8.8-10.8-5.7-33.3-12.2t-69.5-7-64.5 4.5-26 8-22.3 10.3q-13.7 7.2-18 9-4.2 1.7-9.7 5.4-5.5 3.8-5.5 4.8t-3 1.5-6.5 4.3q-3.5 3.7-11 8.4-7.5 4.8-8.5 7.3t-3.5 3.5-2.7 2q-0.3 1-2.6 2.5-2.2 1.5-2.2 2.5t-1 1.2q-1 0.3-14 13.8t-13.8 15.2q-0.7 1.8-4 4.3-3.2 2.5-3.2 4t-1 1.7q-1 0.3-2.5 4-1.5 3.8-2.5 4-1 0.3-5 6.3l-4 6-0.2 0.3-0.3 0.2-0.3 0.2-0.2 0.3-0.2 0.3-0.3 0.2-0.3 0.5-0.2 0.5-1.5 0.2-1.5 0.3h-1l-0.2-0.3-0.3-0.2-0.5-1-0.5-1-0.3-0.2-0.2-0.3-1-0.5-1-0.5-0.2-0.3-0.3-0.2-0.3-2.5-0.2-2.5 0.5-0.2q0.5-0.3 0.5-0.6v-0.2l4-7.8q4-7.7 5-8 1-0.2 3-3.4 2-3.3 3-3.6 1-0.2 1-1.7t1.2-2q1.3-0.5 4-4.3 2.8-3.7 8.6-10 5.7-6.2 6-7.7 0.2-1.5 1.2-1.5t2.5-2.2q1.5-2.3 2.5-2.6 1-0.2 4.5-4 3.5-3.7 4-5 0.5-1.2 2.7-2.7 2.3-1.5 2.6-2.5 0.2-1 5-4.5 4.7-3.5 8-6.7 3.2-3.3 11-8.6 7.7-5.2 8-6.2 0.2-1 8.4-6 8.3-5 27.6-15.2 19.2-10.3 28.2-13.8t27.5-8 66-4.5 69.5 6 33.2 11.3q11.3 5.2 21.8 10.7t15.5 8.5 5.3 4q0.2 1 4.7 3.2 4.5 2.3 14 9.3t10.5 7.3q1 0.2 1 1.2t9.8 8.5q9.7 7.5 14.4 13.7 4.8 6.3 7.6 8 2.7 1.8 5.4 6 2.8 4.3 4 5 1.3 0.8 2 2.6 0.8 1.7 1.8 2 1 0.2 4.8 5.2 3.7 5 5.4 8.5 1.8 3.5 2.8 3.5z" fill="#060405" stroke="#060405"/>
  <path d="m695.5 341.8l1.5-0.3 0.2-0.3 0.3-0.2 0.3 0.2 0.2 0.3 1 0.3 1 0.2 1.5 2.2q1.5 2.3 2.5 2.6 1 0.2 6.2 9.7 5.3 9.5 8.6 16 3.2 6.5 4.2 6.5t4 6.8q3 6.7 9.2 20.4 6.3 13.8 12.8 32.8t11.5 43.5 7.7 40.3q2.8 15.7 3.8 16 1 0.2 1 45.2t-1.5 45-2.3 6.5q-0.7 6.5-3.7 23.5t-3.3 18.5l-0.2 1.5-0.5 0.2-0.5 0.3-0.2 0.3-0.3 0.2-0.3 0.2-0.2 0.3-0.2 0.3-0.3 0.2-0.3-0.2-0.2-0.3-0.2-0.3-0.3-0.2-0.3-0.2-0.2-0.3h-2l-0.2 0.3-0.3 0.2-0.3-0.2-0.2-0.3-0.2-0.3-0.3-0.2-0.3-0.2-0.2-0.3-0.2-0.3-0.3-0.2-0.5-1-0.5-1-0.5 1-0.5 1-0.5-1-0.5-1h-0.5l0.2-1.5q0.3-1.5 2.3-13.5t3.5-17.5 2-55-0.5-55-2.5-16.5-4.5-22-7-27.5-5.3-21.7q-1.2-5.3-8.4-22-7.3-16.8-11.8-24.8t-7.8-16.5q-3.2-8.5-4.2-8.7-1-0.3-6.5-9.3t-9-13.3l-3.5-4.2-0.5-4.5q-0.5-4.5 3.5-4t4 2 1.5 1.3z" fill="#070406" stroke="#070406"/>
  <path d="m197.2 755l0.8-1 5 10.8q5 10.7 7.2 13.4 2.3 2.8 11 17 8.8 14.3 9.3 15.6 0.5 1.2 1.5 1.2t2 2.8q1 2.7 2 3 1 0.2 1.5 4.2t3.3 5.5q2.7 1.5 9 9.3 6.2 7.7 23 24 16.7 16.2 17 17.2 0.2 1 3 2.5 2.7 1.5 7.4 5.7 4.8 4.3 10.6 7.6 5.7 3.2 6 4.2 0.2 1 5.4 4.5 5.3 3.5 28 14.3 22.8 10.7 30.8 13.7t22 6.5 57.5 3.8l43.5 0.2v0.5l1 0.5 1 0.5 0.2 0.3 0.3 0.2 0.3 0.2 0.2 0.3 1 0.5 1 0.5 6 0.5 6 0.5-0.2 0.3-0.3 0.2v2l0.3 1.5 0.2 1.5-1 0.2-1 0.3-0.2 0.3-0.3 0.2-0.3 0.5-0.2 0.5h-0.5l-0.3 0.2-0.2 0.3-2.5 0.5q-2.5 0.5-6.5 1.2-4 0.8-4 1.8t-42 0.8q-42-0.3-65-6.3t-44.5-15.5-23-11.2q-1.5-1.8-3.5-2-2-0.3-3.5-2-1.5-1.8-6-4.6-4.5-2.7-14.5-9.7t-22.5-18-22-20.5-16.3-18.2q-6.7-8.8-9.4-11.3-2.8-2.5-4-5.5-1.3-3-3.3-4.5t-3.3-5q-1.2-3.5-2.2-3.5t-3.8-5q-2.7-5-10-17.8-7.2-12.7-8.7-16.4-1.5-3.8-2.5-3.8t-3.8-6.5l-2.7-6.5-0.3-0.2-0.2-0.3-0.2-0.3-0.3-0.2-0.5-1.5-0.5-1.5-0.3-0.2-0.2-0.3-0.2-0.3-0.3-0.2-0.3-1-0.2-1 1 0.2 1 0.3 0.2 0.3 0.3 0.2 0.7 1.8q0.8 1.7 1.8 2l1 0.2v2h2v-2h4l0.2-3q0.3-3 1-4z" fill="#060305" stroke="#060305"/>
  <path d="m748.2 683.5l1.8-7.5h0.5l0.5 1 0.5 1 0.5-1 0.5-1 0.5 1 0.5 1 0.3 0.2 0.2 0.3 0.2 0.3 0.3 0.2 0.3 0.2 0.2 0.3 0.2 0.3 0.3 0.2 0.3-0.2 0.2-0.3h2l0.2 0.3 0.3 0.2 0.3 0.2 0.2 0.3 0.2 0.3 0.3 0.2 0.3-0.2 0.2-0.3 0.2-0.3 0.3-0.2 0.3-0.2 0.2-0.3 0.5-0.3 0.5-0.2-4 16.8q-4 16.7-8.5 31.4-4.5 14.8-5.5 14.8t-3.2 7.5q-2.3 7.5-4.6 13-2.2 5.5-3.2 5.5t-7 12.8q-6 12.7-14 25.7t-16.2 24.3q-8.3 11.2-8.6 12.7-0.2 1.5-1.7 1.5t-5 5.2q-3.5 5.3-17.5 19.8t-17.8 17.8q-3.7 3.2-4 4.2-0.2 1-8.4 6.5-8.3 5.5-23.6 15.7-15.2 10.3-27.2 16.3t-25.5 11-23.5 8-12.5 3.3l-2.5 0.2 0.2-0.5 0.3-0.5 0.3-0.2 0.2-0.3 1-0.3 1-0.2-0.2-1.5-0.3-1.5v-2l0.3-0.2 0.2-0.3-6-0.5-6-0.5-1-0.5-1-0.5-0.2-0.3-0.3-0.2-0.3-0.2-0.2-0.3-1-0.5-1-0.5v-0.5l1-0.2 1-0.3 1.5-0.5 1.5-0.5 3-0.5q3-0.5 20.5-6t30.5-11.5 18.5-8.5 12.3-6.8q6.7-4.2 13.4-8.4 6.8-4.3 7.6-5.6 0.7-1.2 5-3.7 4.2-2.5 4.4-3.5 0.3-1 2-1.8 1.8-0.7 7-5 5.3-4.2 18.3-18.2t16.7-16.5q3.8-2.5 7.8-9.5t6-7.5 2.2-2q0.3-1.5 6.8-10.5t9.2-14.5q2.8-5.5 4.8-6t2.8-3.5q0.7-3 9.2-20t11-23 7-17.5 7.2-24q2.8-12.5 3.8-12.5t0.8-1q-0.3-1 1.4-8.5z" fill="#0b0608" stroke="#0b0608"/>
 </g>
</svg>
